<svg width="452" height="289" viewBox="0 0 452 289" fill="none" xmlns="http://www.w3.org/2000/svg">
<path d="M106.7 288.5V171.6H0.5V144L104.3 3H130.7V288.5H106.7ZM23.6 149.1H106.7V36.9L23.6 149.1Z" fill="#35C26E"/>
<path d="M233.202 216C191.202 216 168.102 187.5 168.102 144V71.7C168.102 27.3 191.802 0 233.202 0C276.102 0 298.602 28.8 298.602 71.7V144C298.602 188.1 274.902 216 233.202 216ZM233.202 192C265.302 192 274.602 169.5 274.602 144V71.7C274.602 45.9 265.002 24 233.202 24C201.102 24 192.102 46.2 192.102 71.7V144C192.102 170.1 201.402 192 233.202 192Z" fill="white"/>
<path d="M427.278 288.5V171.6H321.078V144L424.878 3H451.278V288.5H427.278ZM344.178 149.1H427.278V36.9L344.178 149.1Z" fill="#35C26E"/>
</svg>
