<svg width="90" height="90" viewBox="0 0 90 90" fill="none" xmlns="http://www.w3.org/2000/svg">
<g clip-path="url(#clip0_230_761)">
<path opacity="0.5" d="M45 89.5C69.5767 89.5 89.5 69.5767 89.5 45C89.5 20.4233 69.5767 0.5 45 0.5C20.4233 0.5 0.5 20.4233 0.5 45C0.5 69.5767 20.4233 89.5 45 89.5Z" stroke="#35C26E"/>
<path opacity="0.6" d="M49.7363 32.3019L49.7645 32.2209L49.7564 32.1355L49.375 28.1105L49.2587 28.0965C50.7595 25.9425 53.3178 24.5166 56.2286 24.5166C60.8639 24.5166 64.6055 28.1325 64.6059 32.5467C64.5878 36.8778 61.061 40.4043 56.5358 40.5604H56.5056H56.4416C56.3023 40.542 56.1431 40.5436 55.9917 40.5597C52.4985 40.434 49.6416 38.3952 48.4501 35.5457L48.5923 35.5951L49.7363 32.3019ZM48.9639 32.1244L48.1157 34.5661C47.9482 33.9413 47.8572 33.287 47.8516 32.613L48.7616 29.9885L48.9639 32.1244Z" fill="#0F0F0F" stroke="#35C26E" stroke-width="0.787878"/>
<path opacity="0.6" d="M46.2181 59.1629L46.2171 59.1622C43.7959 57.6134 42.5117 55.5547 42.5117 53.386C42.5117 51.217 43.7962 49.1394 46.2366 47.5719C48.9463 45.8512 52.5175 44.9794 56.104 44.9794C59.6909 44.9794 63.2519 45.8514 65.9413 47.5717C68.3595 49.1186 69.6276 51.1771 69.6466 53.3497C69.6459 55.5372 68.3613 57.5957 65.9397 59.1632C63.2405 60.9019 59.6702 61.7831 56.0792 61.7831C52.4879 61.7831 48.9174 60.9018 46.2181 59.1629Z" fill="#0F0F0F" stroke="#35C26E" stroke-width="0.787878"/>
<path d="M26.2617 30.4718C26.2617 24.4396 31.3796 19.5 37.7179 19.5C44.0558 19.5 49.1734 24.439 49.1741 30.4707C49.1495 36.3889 44.3252 41.2065 38.1373 41.4195H38.0954H38.0057C37.8181 41.3944 37.6021 41.3965 37.3962 41.4185C31.0665 41.1922 26.2617 36.3759 26.2617 30.4718Z" fill="#0F0F0F" stroke="#35C26E"/>
<path d="M25.2043 63.474L25.2029 63.4732C22.1299 61.5075 20.5 58.8944 20.5 56.1418C20.5 53.3889 22.1303 50.7519 25.2278 48.7624C28.667 46.5785 33.1996 45.4719 37.7517 45.4719C42.3044 45.4719 46.8241 46.5788 50.2376 48.7622C53.3067 50.7254 54.9163 53.3381 54.9405 56.0955C54.9397 58.8719 53.3094 61.4846 50.2361 63.4741C46.8102 65.6811 42.2783 66.7997 37.7203 66.7997C33.1621 66.7997 28.6302 65.6811 25.2043 63.474Z" fill="#0F0F0F" stroke="#35C26E"/>
</g>
<defs>
<clipPath id="clip0_230_761">
<rect width="90" height="90" fill="white"/>
</clipPath>
</defs>
</svg>
