<svg width="90" height="90" viewBox="0 0 90 90" fill="none" xmlns="http://www.w3.org/2000/svg">
<g clip-path="url(#clip0_230_770)">
<path opacity="0.5" d="M45 89.5C69.5767 89.5 89.5 69.5767 89.5 45C89.5 20.4233 69.5767 0.5 45 0.5C20.4233 0.5 0.5 20.4233 0.5 45C0.5 69.5767 20.4233 89.5 45 89.5Z" stroke="#35C26E"/>
<path d="M55.5825 64.975L55.5782 64.9725L46.0786 59.5476L45.9686 59.4848L45.842 59.4819C44.8614 59.4594 43.8872 59.3923 42.9645 59.2592C42.4921 59.1919 42.1028 58.8915 41.9359 58.4742C41.7711 58.0618 41.8495 57.6235 42.153 57.2829C43.7951 55.4396 44.6486 53.2253 44.6486 50.8645C44.6486 45.019 39.3221 40.3584 32.8958 40.3584C30.4878 40.3584 28.1683 40.9966 26.2118 42.2346C25.832 42.4659 25.3682 42.4996 24.9519 42.3173C24.5487 42.1304 24.273 41.769 24.2245 41.3706C24.1549 40.7452 24.1094 40.1273 24.1094 39.491C24.1094 28.5087 34.0227 19.5 46.3044 19.5C58.586 19.5 68.4994 28.5087 68.4994 39.491C68.4994 45.5214 65.5986 51.0746 60.4576 54.8847L60.2216 55.0595L60.2594 55.3508L61.0644 61.547C61.0645 61.5475 61.0645 61.548 61.0646 61.5484C61.2292 62.899 60.6147 64.1703 59.4254 64.9136C58.8393 65.2759 58.1486 65.4765 57.4624 65.4765C56.8112 65.4765 56.1647 65.3151 55.5825 64.975ZM45.837 56.3094L45.4263 57.0999L46.315 57.0388C46.5322 57.0239 46.7581 57.0834 46.9584 57.2118L46.9691 57.2187L46.9801 57.225L56.9005 62.8972C57.1132 63.0256 57.3342 63.0764 57.5479 63.0587C57.7511 63.042 57.9148 62.9663 58.0313 62.893C58.2608 62.7559 58.6093 62.4047 58.5263 61.8286L57.6035 54.6346C57.5547 54.1834 57.7545 53.7484 58.1248 53.4876C63.0802 50.1439 65.9459 45.0269 65.9459 39.4452C65.9459 29.7035 57.0911 21.8733 46.3044 21.8733C35.9257 21.8733 27.3248 29.1438 26.6877 38.3853L26.6344 39.1586L27.3609 38.8883C29.0836 38.2474 30.9436 37.894 32.8721 37.894C40.8162 37.894 47.1784 43.7322 47.1784 50.8189V50.8248C47.2011 52.7424 46.7259 54.5991 45.837 56.3094Z" stroke="#35C26E"/>
<path d="M27.267 67.0688L33.0399 63.7888L33.1476 63.7276L33.2715 63.7238C37.5465 63.592 41.409 61.8354 43.9831 58.8517L43.9889 58.8451C45.9924 56.6033 47.08 53.7796 47.08 50.9204C47.08 43.8914 40.7282 38.0948 32.79 38.0948C29.8746 38.0948 27.0796 38.885 24.7243 40.3497L24.7205 40.3521C20.8101 42.7352 18.5 46.6975 18.5 50.9204C18.5 54.6235 20.3126 58.17 23.395 60.5713L23.6219 60.7479L23.5832 61.033L23.1105 64.5127C22.9944 65.5067 23.4607 66.4517 24.3676 67.0105L24.3698 67.012C24.8314 67.2998 25.3307 67.4339 25.8564 67.4339C26.3438 67.4339 26.8263 67.3177 27.267 67.0688ZM27.267 67.0688C27.2669 67.0688 27.2671 67.0688 27.267 67.0688ZM32.7663 61.3073C36.3739 61.3073 39.8063 59.8307 41.9934 57.29C43.6279 55.4421 44.5067 53.2459 44.5067 50.8979C44.5067 45.1123 39.1819 40.4884 32.7663 40.4884C30.3611 40.4884 28.0441 41.1217 26.0896 42.3509C22.9301 44.2871 21.0259 47.4711 21.0259 50.9204C21.0259 54.2462 22.7307 57.2709 25.6995 59.2112C26.0872 59.4698 26.2834 59.8966 26.2357 60.3393L25.7159 64.2022L25.5813 65.2017L26.4583 64.7035L32.1106 61.4929C32.1111 61.4926 32.1117 61.4923 32.1122 61.492C32.3335 61.3689 32.5575 61.3073 32.7663 61.3073Z" stroke="#35C26E"/>
</g>
<defs>
<clipPath id="clip0_230_770">
<rect width="90" height="90" fill="white"/>
</clipPath>
</defs>
</svg>
