<svg width="182" height="22" viewBox="0 0 182 22" fill="none" xmlns="http://www.w3.org/2000/svg">
<path d="M4.07984 17.2063H12.8012V21.1087H0V0.413897H12.6534V4.31635H4.07984V8.7214H11.9143V12.5647H4.07984V17.2063Z" fill="#35C26E"/>
<path d="M26.2349 21.5226C23.1208 21.5226 20.5487 20.4879 18.5186 18.4184C16.4886 16.3489 15.4735 13.7966 15.4735 10.7613C15.4735 7.70636 16.4886 5.154 18.5186 3.10423C20.5487 1.03474 23.1208 0 26.2349 0C28.1073 0 29.8318 0.443461 31.4086 1.33038C33.005 2.1976 34.2467 3.38016 35.1336 4.87807L31.6155 6.91799C31.1031 5.99165 30.3738 5.27226 29.4278 4.75981C28.4817 4.22766 27.4174 3.96158 26.2349 3.96158C24.2245 3.96158 22.5985 4.59228 21.3568 5.85368C20.1348 7.11508 19.5238 8.75096 19.5238 10.7613C19.5238 12.752 20.1348 14.378 21.3568 15.6394C22.5985 16.9008 24.2245 17.5315 26.2349 17.5315C27.4174 17.5315 28.4817 17.2753 29.4278 16.7628C30.3935 16.2307 31.1228 15.5113 31.6155 14.6046L35.1336 16.6446C34.2467 18.1425 33.0149 19.3349 31.4381 20.2218C29.8614 21.089 28.127 21.5226 26.2349 21.5226Z" fill="#35C26E"/>
<path d="M55.7379 18.4184C53.6488 20.4879 51.1062 21.5226 48.1104 21.5226C45.1146 21.5226 42.5721 20.4879 40.4829 18.4184C38.4134 16.3292 37.3787 13.7768 37.3787 10.7613C37.3787 7.74578 38.4134 5.20327 40.4829 3.13379C42.5721 1.0446 45.1146 0 48.1104 0C51.1062 0 53.6488 1.0446 55.7379 3.13379C57.8271 5.20327 58.8717 7.74578 58.8717 10.7613C58.8717 13.7768 57.8271 16.3292 55.7379 18.4184ZM43.3506 15.6394C44.6317 16.9008 46.2183 17.5315 48.1104 17.5315C50.0025 17.5315 51.5891 16.9008 52.8702 15.6394C54.1513 14.3583 54.7919 12.7323 54.7919 10.7613C54.7919 8.79038 54.1513 7.16436 52.8702 5.88325C51.5891 4.60214 50.0025 3.96158 48.1104 3.96158C46.2183 3.96158 44.6317 4.60214 43.3506 5.88325C42.0695 7.16436 41.4289 8.79038 41.4289 10.7613C41.4289 12.7323 42.0695 14.3583 43.3506 15.6394Z" fill="#35C26E"/>
<path d="M73.9787 21.1087L69.8102 13.9247H66.706V21.1087H62.6261V0.413897H70.9041C72.8159 0.413897 74.4419 1.08402 75.7821 2.42425C77.1224 3.76449 77.7925 5.38066 77.7925 7.27276C77.7925 8.55387 77.4279 9.74628 76.6986 10.85C75.9694 11.934 75.0036 12.752 73.8013 13.3038L78.3838 21.1087H73.9787ZM66.706 4.22766V10.3474H70.9041C71.6727 10.3474 72.333 10.0518 72.8849 9.4605C73.4367 8.84951 73.7127 8.12026 73.7127 7.27276C73.7127 6.42525 73.4367 5.70586 72.8849 5.11458C72.333 4.5233 71.6727 4.22766 70.9041 4.22766H66.706Z" fill="white"/>
<path d="M85.7528 17.2063H94.4742V21.1087H81.673V0.413897H94.3264V4.31635H85.7528V8.7214H93.5873V12.5647H85.7528V17.2063Z" fill="white"/>
<path d="M118.488 0.413897V21.1087H114.438V7.68665L108.614 17.295H108.141L102.317 7.71622V21.1087H98.237V0.413897H102.435L108.377 10.1996L114.29 0.413897H118.488Z" fill="white"/>
<path d="M140.645 18.4184C138.555 20.4879 136.013 21.5226 133.017 21.5226C130.021 21.5226 127.479 20.4879 125.389 18.4184C123.32 16.3292 122.285 13.7768 122.285 10.7613C122.285 7.74578 123.32 5.20327 125.389 3.13379C127.479 1.0446 130.021 0 133.017 0C136.013 0 138.555 1.0446 140.645 3.13379C142.734 5.20327 143.778 7.74578 143.778 10.7613C143.778 13.7768 142.734 16.3292 140.645 18.4184ZM128.257 15.6394C129.538 16.9008 131.125 17.5315 133.017 17.5315C134.909 17.5315 136.496 16.9008 137.777 15.6394C139.058 14.3583 139.698 12.7323 139.698 10.7613C139.698 8.79038 139.058 7.16436 137.777 5.88325C136.496 4.60214 134.909 3.96158 133.017 3.96158C131.125 3.96158 129.538 4.60214 128.257 5.88325C126.976 7.16436 126.336 8.79038 126.336 10.7613C126.336 12.7323 126.976 14.3583 128.257 15.6394Z" fill="white"/>
<path d="M159.506 0.413897H163.586V21.1087H160.482L151.613 8.45532V21.1087H147.533V0.413897H150.637L159.506 13.0377V0.413897Z" fill="white"/>
<path d="M176.412 21.1087H172.333V7.40455C172.555 7.09659 172.999 6.48067 174.385 6.48067C175.771 6.48067 176.198 7.09659 176.412 7.40455V21.1087Z" fill="white"/>
<path d="M182 0.413897V4.31635H166.775V0.413897H182Z" fill="white"/>
<path d="M4.08398 8.63638H6.85561V8.63638C5.69176 9.71711 5.69176 11.5591 6.85561 12.6398V12.6398H4.08398V8.63638Z" fill="#121212"/>
</svg>
