<svg width="99" height="99" viewBox="0 0 99 99" fill="none" xmlns="http://www.w3.org/2000/svg">
<path d="M7.72215 60.1813H22.092V66.3462H1V33.6538H21.8484V39.8187H7.72215V46.7775H20.6306V52.8489H7.72215V60.1813Z" fill="#35C26E"/>
<path d="M44.2259 67C39.095 67 34.8571 65.3654 31.5122 62.0962C28.1674 58.8269 26.495 54.7949 26.495 50C26.495 45.174 28.1674 41.1419 31.5122 37.9038C34.8571 34.6346 39.095 33 44.2259 33C47.3109 33 50.1524 33.7005 52.7503 35.1016C55.3807 36.4716 57.4266 38.3397 58.8879 40.706L53.0913 43.9286C52.247 42.4652 51.0454 41.3288 49.4867 40.5192C47.9279 39.6786 46.1743 39.2582 44.2259 39.2582C40.9135 39.2582 38.2344 40.2546 36.1885 42.2473C34.1751 44.2399 33.1684 46.8242 33.1684 50C33.1684 53.1447 34.1751 55.7134 36.1885 57.706C38.2344 59.6987 40.9135 60.6951 44.2259 60.6951C46.1743 60.6951 47.9279 60.2903 49.4867 59.4808C51.0779 58.6401 52.2795 57.5037 53.0913 56.0714L58.8879 59.294C57.4266 61.6603 55.397 63.544 52.799 64.9451C50.2011 66.315 47.3434 67 44.2259 67Z" fill="#35C26E"/>
<path d="M92.8366 62.0962C89.3943 65.3654 85.2052 67 80.2691 67C75.333 67 71.1439 65.3654 67.7016 62.0962C64.2918 58.7958 62.5869 54.7637 62.5869 50C62.5869 45.2363 64.2918 41.2198 67.7016 37.9505C71.1439 34.6502 75.333 33 80.2691 33C85.2052 33 89.3943 34.6502 92.8366 37.9505C96.2789 41.2198 98 45.2363 98 50C98 54.7637 96.2789 58.7958 92.8366 62.0962ZM72.4266 57.706C74.5374 59.6987 77.1516 60.6951 80.2691 60.6951C83.3866 60.6951 86.0008 59.6987 88.1116 57.706C90.2224 55.6822 91.2778 53.1136 91.2778 50C91.2778 46.8864 90.2224 44.3178 88.1116 42.294C86.0008 40.2701 83.3866 39.2582 80.2691 39.2582C77.1516 39.2582 74.5374 40.2701 72.4266 42.294C70.3158 44.3178 69.2604 46.8864 69.2604 50C69.2604 53.1136 70.3158 55.6822 72.4266 57.706Z" fill="#35C26E"/>
</svg>
