<svg width="452" height="289" viewBox="0 0 452 289" fill="none" xmlns="http://www.w3.org/2000/svg">
<path d="M293.228 251.544C289.677 251.544 286.127 250.628 282.92 248.681L236.997 221.423C232.187 221.309 227.377 220.966 222.796 220.279C219.703 219.821 217.069 217.759 215.924 214.781C214.779 211.803 215.352 208.597 217.413 206.192C224.972 197.373 228.865 186.837 228.865 175.614C228.865 147.899 204.472 125.338 174.466 125.338C163.243 125.338 152.478 128.431 143.43 134.387C140.911 135.99 137.819 136.219 135.07 134.959C132.436 133.699 130.489 131.179 130.146 128.201C129.802 124.994 129.573 121.789 129.573 118.468C129.573 61.6636 178.818 15.5107 239.287 15.5107C299.755 15.5107 349.001 61.6636 349.001 118.468C349.001 149.618 334.571 178.248 309.146 197.831L313.04 228.983C313.956 236.771 310.521 244.1 303.993 248.337C300.786 250.399 297.007 251.544 293.228 251.544ZM239.172 204.13C240.776 204.016 242.379 204.475 243.753 205.391L291.739 233.907C292.999 234.709 294.029 234.366 294.716 233.907C295.289 233.564 296.205 232.648 295.976 231.044L291.51 194.854C291.166 191.647 292.54 188.556 295.06 186.724C318.423 170.347 331.822 145.38 331.822 118.238C331.822 70.9398 290.364 32.46 239.287 32.46C190.156 32.46 149.844 68.1918 146.866 113.085C155.455 109.764 164.732 107.931 174.352 107.931C213.863 107.931 245.929 138.165 245.929 175.385C246.044 185.463 243.639 195.197 239.172 204.13Z" fill="#35C26E"/>
<path d="M141.022 261.622C138.044 261.622 135.181 260.821 132.547 259.103C127.394 255.782 124.645 250.055 125.332 243.986L127.623 226.349C112.162 213.751 103 195.084 103 175.501C103 153.168 114.682 132.325 134.265 119.842C146.061 112.169 160.033 108.047 174.577 108.047C214.088 108.047 246.155 138.28 246.155 175.501C246.155 190.618 240.658 205.506 230.58 217.302C217.638 232.991 198.284 242.153 176.982 242.84L149.038 259.446C146.519 260.935 143.77 261.622 141.022 261.622ZM174.463 125.225C163.239 125.225 152.474 128.317 143.427 134.272C128.768 143.663 120.064 159.009 120.064 175.501C120.064 191.419 127.852 205.964 141.595 215.355C144.229 217.187 145.603 220.279 145.259 223.486L142.74 243.069L170.111 226.807C171.485 226.005 172.974 225.547 174.463 225.547C191.298 225.547 207.217 218.332 217.295 206.078C224.853 197.145 228.862 186.609 228.862 175.386C228.862 147.786 204.468 125.225 174.463 125.225Z" fill="#35C26E"/>
</svg>
